<svg height="862" width="720" xmlns="http://www.w3.org/2000/svg">
<rect height="862" fill="#555" width="720"></rect>
<text fill="#7f7" font-family="Courier New" font-size="12" xml:space="preserve">
<tspan x="10" y="26">22 megabytes installed</tspan>
<tspan x="10" y="42"></tspan>
<tspan x="10" y="58">node_modules</tspan>
<tspan x="10" y="74">└─┬ any-json@2.2.0 </tspan>
<tspan x="10" y="90">  ├─┬ cson-safe@1.0.5 </tspan>
<tspan x="10" y="106">  │ └── coffee-script@1.12.5 </tspan>
<tspan x="10" y="122">  ├─┬ fast-csv@2.4.0 </tspan>
<tspan x="10" y="138">  │ ├─┬ extended@0.0.6 </tspan>
<tspan x="10" y="154">  │ │ └─┬ extender@0.0.10 </tspan>
<tspan x="10" y="170">  │ │   └── declare.js@0.0.8 </tspan>
<tspan x="10" y="186">  │ ├── is-extended@0.0.10 </tspan>
<tspan x="10" y="202">  │ ├─┬ object-extended@0.0.7 </tspan>
<tspan x="10" y="218">  │ │ └─┬ array-extended@0.0.11 </tspan>
<tspan x="10" y="234">  │ │   └── arguments-extended@0.0.3 </tspan>
<tspan x="10" y="250">  │ └─┬ string-extended@0.0.8 </tspan>
<tspan x="10" y="266">  │   └── date-extended@0.0.6 </tspan>
<tspan x="10" y="282">  ├── hjson@2.4.1 </tspan>
<tspan x="10" y="298">  ├── ini@1.3.4 </tspan>
<tspan x="10" y="314">  ├─┬ js-yaml@3.8.3 </tspan>
<tspan x="10" y="330">  │ ├─┬ argparse@1.0.9 </tspan>
<tspan x="10" y="346">  │ │ └── sprintf-js@1.0.3 </tspan>
<tspan x="10" y="362">  │ └── esprima@3.1.3 </tspan>
<tspan x="10" y="378">  ├── json5@0.5.1 </tspan>
<tspan x="10" y="394">  ├── strip-json-comments@2.0.1 </tspan>
<tspan x="10" y="410">  ├─┬ xlsjs@0.7.6 </tspan>
<tspan x="10" y="426">  │ ├── cfb@0.11.1 </tspan>
<tspan x="10" y="442">  │ ├─┬ codepage@1.8.1 </tspan>
<tspan x="10" y="458">  │ │ ├─┬ concat-stream@1.6.0 </tspan>
<tspan x="10" y="474">  │ │ │ ├── inherits@2.0.3 </tspan>
<tspan x="10" y="490">  │ │ │ ├─┬ readable-stream@2.2.9 </tspan>
<tspan x="10" y="506">  │ │ │ │ ├── buffer-shims@1.0.0 </tspan>
<tspan x="10" y="522">  │ │ │ │ ├── core-util-is@1.0.2 </tspan>
<tspan x="10" y="538">  │ │ │ │ ├── isarray@1.0.0 </tspan>
<tspan x="10" y="554">  │ │ │ │ ├── process-nextick-args@1.0.7 </tspan>
<tspan x="10" y="570">  │ │ │ │ ├── string_decoder@1.0.0 </tspan>
<tspan x="10" y="586">  │ │ │ │ └── util-deprecate@1.0.2 </tspan>
<tspan x="10" y="602">  │ │ │ └── typedarray@0.0.6 </tspan>
<tspan x="10" y="618">  │ │ └── voc@0.5.0 </tspan>
<tspan x="10" y="634">  │ ├─┬ commander@2.9.0 </tspan>
<tspan x="10" y="650">  │ │ └── graceful-readlink@1.0.1 </tspan>
<tspan x="10" y="666">  │ ├── exit-on-epipe@1.0.0 </tspan>
<tspan x="10" y="682">  │ └─┬ ssf@0.8.2 </tspan>
<tspan x="10" y="698">  │   ├── colors@0.6.2 </tspan>
<tspan x="10" y="714">  │   └── frac@0.3.1 </tspan>
<tspan x="10" y="730">  ├─┬ xlsx@0.8.8 </tspan>
<tspan x="10" y="746">  │ ├─┬ adler-32@1.0.0 </tspan>
<tspan x="10" y="762">  │ │ └── printj@1.0.0 </tspan>
<tspan x="10" y="778">  │ └── crc-32@1.0.1 </tspan>
<tspan x="10" y="794">  └─┬ xml2js@0.4.17 </tspan>
<tspan x="10" y="810">    ├── sax@1.2.2 </tspan>
<tspan x="10" y="826">    └─┬ xmlbuilder@4.2.1 </tspan>
<tspan x="10" y="842">      └── lodash@4.17.4</tspan>
</text>
</svg>
